<svg id="Logo" xmlns="http://www.w3.org/2000/svg" width="139.49" height="35.64" viewBox="0 0 256.402 65.25">
  <defs>
    <clipPath id="clip-path">
      <rect id="Rectangle_14845" data-name="Rectangle 14845" width="256.402" height="65.25" fill="none"/>
    </clipPath>
  </defs>
  <g id="Light_mode_logo" data-name="Light mode logo">
    <g id="Group_18974" data-name="Group 18974" clip-path="url(#clip-path)">
      <path id="Path_28234" data-name="Path 28234" d="M55.734,35.379a27.231,27.231,0,0,1-9.293,18.409,65.679,65.679,0,0,1-15.9,10.739,6.806,6.806,0,0,1-1.559.609,3.224,3.224,0,0,1-1.669,0,54.433,54.433,0,0,1-13.059-7.666,45.509,45.509,0,0,1-7.634-7.057A25.853,25.853,0,0,1,.588,35.653C.218,31.216.159,26.75.042,22.3c-.077-2.933-.028-5.87-.009-8.8A4.319,4.319,0,0,1,2.9,9.23C9.645,6.578,16.419,4.008,23.181,1.408c.852-.328,1.707-.65,2.557-.982A5.809,5.809,0,0,1,30.051.4q8.884,3.358,17.77,6.709c1.68.635,3.352,1.291,5.035,1.919a4.682,4.682,0,0,1,3.4,4.887q0,4.93,0,9.86ZM54.9,22.986q0-4.71,0-9.419a3.132,3.132,0,0,0-2.155-3.126Q41.071,5.982,29.368,1.588a4.029,4.029,0,0,0-2.94.017Q15.009,5.993,3.594,10.4a3.233,3.233,0,0,0-2.22,3.26c-.007,2.7-.037,5.4.005,8.1.08,5.07-.082,10.151.709,15.19a24.865,24.865,0,0,0,6.3,13.423A62.164,62.164,0,0,0,25.748,63.093a4.735,4.735,0,0,0,4.785,0,74.407,74.407,0,0,0,13.578-9.02A27.373,27.373,0,0,0,54.585,33.539Z" transform="translate(0 0)" fill="#ed1c24"/>
      <path id="Path_28235" data-name="Path 28235" d="M261.333,73.862a.351.351,0,0,1-.107-.26V52.92a.352.352,0,0,1,.107-.26.356.356,0,0,1,.261-.107h2.826a.366.366,0,0,1,.369.367V73.6a.366.366,0,0,1-.369.367h-2.826a.354.354,0,0,1-.261-.107" transform="translate(-199.511 -40.185)"/>
      <path id="Path_28236" data-name="Path 28236" d="M307.894,52.66a.356.356,0,0,1,.261-.107h2.826a.366.366,0,0,1,.369.367V73.6a.366.366,0,0,1-.369.367h-2.733a.44.44,0,0,1-.43-.245l-8.846-14.441q-.061-.092-.123-.076c-.041.01-.061.056-.061.138l.061,14.257a.366.366,0,0,1-.369.367h-2.826a.366.366,0,0,1-.368-.367V52.92a.366.366,0,0,1,.368-.367h2.734a.441.441,0,0,1,.43.245l8.815,14.441c.041.061.082.087.123.076s.061-.056.061-.138l-.031-14.257a.352.352,0,0,1,.108-.26" transform="translate(-225.524 -40.185)"/>
      <path id="Path_28237" data-name="Path 28237" d="M392.772,52.66a.353.353,0,0,1,.108.26v2.356a.352.352,0,0,1-.108.26.357.357,0,0,1-.261.107h-5.651a.135.135,0,0,0-.153.153V73.6a.367.367,0,0,1-.369.367h-2.826a.367.367,0,0,1-.368-.367V55.8a.136.136,0,0,0-.154-.153h-5.436a.366.366,0,0,1-.369-.367V52.92a.366.366,0,0,1,.369-.367h14.957a.357.357,0,0,1,.261.107" transform="translate(-288.074 -40.185)"/>
      <path id="Path_28238" data-name="Path 28238" d="M471.976,55.505a.355.355,0,0,1-.261.107H461.242a.136.136,0,0,0-.154.153v5.721a.135.135,0,0,0,.154.153h7.033a.367.367,0,0,1,.369.367v2.325a.367.367,0,0,1-.369.367h-7.033a.135.135,0,0,0-.154.153v5.9a.135.135,0,0,0,.154.153h10.473a.366.366,0,0,1,.368.367V73.6a.366.366,0,0,1-.368.367H457.895a.366.366,0,0,1-.369-.367V52.92a.352.352,0,0,1,.107-.26.356.356,0,0,1,.261-.107h13.821a.366.366,0,0,1,.368.367v2.325a.353.353,0,0,1-.108.26" transform="translate(-349.434 -40.185)"/>
      <path id="Path_28239" data-name="Path 28239" d="M546.126,73.694l-4.054-8.811a.2.2,0,0,0-.184-.122H538.2a.135.135,0,0,0-.154.153V73.6a.366.366,0,0,1-.369.367h-2.826a.355.355,0,0,1-.261-.107.351.351,0,0,1-.107-.26V52.92a.352.352,0,0,1,.107-.26.356.356,0,0,1,.261-.107H543.3a6.87,6.87,0,0,1,3.317.78,5.543,5.543,0,0,1,2.242,2.2,6.546,6.546,0,0,1,.8,3.258,5.9,5.9,0,0,1-1.091,3.6,5.638,5.638,0,0,1-3.025,2.065.1.1,0,0,0-.092.061.129.129,0,0,0,0,.122l4.331,8.9a.475.475,0,0,1,.062.184q0,.245-.338.245h-2.948a.435.435,0,0,1-.43-.275m-8.078-17.928v6.088a.135.135,0,0,0,.154.153h4.607a3.29,3.29,0,0,0,2.381-.872,3.06,3.06,0,0,0,.906-2.31,3.113,3.113,0,0,0-.906-2.325,3.259,3.259,0,0,0-2.381-.887H538.2a.135.135,0,0,0-.154.153" transform="translate(-408.212 -40.185)"/>
      <path id="Path_28240" data-name="Path 28240" d="M625.62,53.218a5.64,5.64,0,0,1,2.288,2.248,6.743,6.743,0,0,1,.814,3.35,6.5,6.5,0,0,1-.829,3.3,5.6,5.6,0,0,1-2.35,2.218,7.6,7.6,0,0,1-3.516.78h-4.914a.135.135,0,0,0-.154.153V73.5a.366.366,0,0,1-.369.367h-2.826a.366.366,0,0,1-.369-.367V52.79a.366.366,0,0,1,.369-.367h8.446a7.069,7.069,0,0,1,3.409.8m-1.413,8.108a3.2,3.2,0,0,0,.952-2.417,3.345,3.345,0,0,0-.952-2.478,3.414,3.414,0,0,0-2.518-.948h-4.576a.135.135,0,0,0-.154.153v6.456a.135.135,0,0,0,.154.153h4.576a3.476,3.476,0,0,0,2.518-.918" transform="translate(-468.479 -40.086)"/>
      <path id="Path_28241" data-name="Path 28241" d="M713.784,49.5a1.144,1.144,0,0,0-.937-.45h-2.979a1.234,1.234,0,0,0-1.225.9l-3.876,13.525-3.9-13.536a1.231,1.231,0,0,0-1.222-.893H696.6a1.1,1.1,0,0,0-1.165,1.13.826.826,0,0,0,.025.2l.031.122c0,.015.008.03.012.045l6.449,20.679a1.21,1.21,0,0,0,1.19.889h3.071a1.206,1.206,0,0,0,1.188-.882l6.538-20.671a1.125,1.125,0,0,0-.156-1.06" transform="translate(-531.137 -37.509)" fill="#ed1c24"/>
      <path id="Path_28242" data-name="Path 28242" d="M876.736,49.4a1.192,1.192,0,0,0-.844-.346h-2.826a1.192,1.192,0,0,0-1.2,1.191V64.409a3.15,3.15,0,0,1-.894,2.355,3.747,3.747,0,0,1-4.85,0,3.148,3.148,0,0,1-.894-2.355V50.244a1.192,1.192,0,0,0-1.2-1.191h-2.826a1.192,1.192,0,0,0-1.2,1.191v14.1a8.127,8.127,0,0,0,1.082,4.2,7.333,7.333,0,0,0,3.055,2.84,10.459,10.459,0,0,0,8.827,0,7.229,7.229,0,0,0,3.044-2.845,8.22,8.22,0,0,0,1.063-4.191v-14.1a1.186,1.186,0,0,0-.352-.844" transform="translate(-656.835 -37.509)" fill="#ed1c24"/>
      <path id="Path_28243" data-name="Path 28243" d="M964.352,67.756a1.192,1.192,0,0,0-.844-.346h-9.615V50.244a1.192,1.192,0,0,0-1.2-1.191h-2.826a1.192,1.192,0,0,0-1.2,1.191V70.926a1.192,1.192,0,0,0,1.2,1.191h13.636a1.192,1.192,0,0,0,1.2-1.191V68.6a1.185,1.185,0,0,0-.352-.844" transform="translate(-724.549 -37.509)" fill="#ed1c24"/>
      <path id="Path_28244" data-name="Path 28244" d="M1028.856,49.4l0,0a1.191,1.191,0,0,0-.844-.346h-14.957a1.191,1.191,0,0,0-1.2,1.191V52.6a1.175,1.175,0,0,0,.348.84,1.188,1.188,0,0,0,.848.35h4.763V70.926a1.175,1.175,0,0,0,.348.84,1.189,1.189,0,0,0,.848.35h2.826a1.192,1.192,0,0,0,1.2-1.191V53.79h4.978a1.191,1.191,0,0,0,1.2-1.191V50.244a1.183,1.183,0,0,0-.348-.84" transform="translate(-772.802 -37.509)" fill="#ed1c24"/>
      <path id="Path_28245" data-name="Path 28245" d="M786.844,70.575l-6.678-20.63a1.211,1.211,0,0,0-1.191-.893h-3.839a1.205,1.205,0,0,0-1.186.878l-6.665,20.682-.007.024a1.118,1.118,0,0,0,.2,1.084,1.166,1.166,0,0,0,.906.4h3.071a1.208,1.208,0,0,0,1.189-.887l.872-2.815h7.119l.871,2.813a1.211,1.211,0,0,0,1.19.889h3.071a1.084,1.084,0,0,0,1.165-1.1,1.175,1.175,0,0,0-.082-.442m-8.226-11.1c.381,1.227.7,2.475,1.035,3.715.09.329.172.66.273,1.055h-5.691c.418-1.579.8-3.121,1.247-4.644a.932.932,0,0,0-.286-1.136,2.756,2.756,0,0,1-.077-4.126,2.867,2.867,0,0,1,4.041.122,2.76,2.76,0,0,1-.233,4.067.76.76,0,0,0-.309.949" transform="translate(-585.962 -37.509)" fill="#ed1c24"/>
      <path id="Path_28246" data-name="Path 28246" d="M264.979,174.626a.9.9,0,0,0-.153.61v.1a.03.03,0,0,0,.034.034h.893a.075.075,0,0,1,.085.085v.576a.075.075,0,0,1-.085.084h-.893a.03.03,0,0,0-.034.034V179.6a.075.075,0,0,1-.085.085h-.646a.075.075,0,0,1-.085-.085v-3.448a.03.03,0,0,0-.034-.034h-.57a.075.075,0,0,1-.085-.084v-.576a.075.075,0,0,1,.085-.085h.57a.03.03,0,0,0,.034-.034v-.153a2.249,2.249,0,0,1,.132-.864.8.8,0,0,1,.447-.436,2.368,2.368,0,0,1,.885-.132h.289a.075.075,0,0,1,.085.085v.542a.075.075,0,0,1-.085.085h-.2a.8.8,0,0,0-.578.161" transform="translate(-201.11 -132.861)"/>
      <path id="Path_28247" data-name="Path 28247" d="M280.326,180.559a.079.079,0,0,1,.043.1l-.136.635q-.008.076-.1.051a.9.9,0,0,0-.34-.059l-.119.008a.957.957,0,0,0-.659.275.91.91,0,0,0-.259.674v2.474a.075.075,0,0,1-.085.085h-.646a.075.075,0,0,1-.085-.085v-4.143a.075.075,0,0,1,.085-.085h.646a.075.075,0,0,1,.085.085v.449c0,.017,0,.027.013.03s.016,0,.021-.013a1.186,1.186,0,0,1,1.046-.593,1.091,1.091,0,0,1,.493.11" transform="translate(-212.273 -137.982)"/>
      <path id="Path_28248" data-name="Path 28248" d="M291.236,184.472a1.668,1.668,0,0,1-.655-.885,3.256,3.256,0,0,1-.153-1.034,3.108,3.108,0,0,1,.145-1.017,1.665,1.665,0,0,1,.655-.877,1.934,1.934,0,0,1,1.114-.318,1.818,1.818,0,0,1,1.067.318,1.74,1.74,0,0,1,.651.868,3.048,3.048,0,0,1,.153,1.017,3.228,3.228,0,0,1-.153,1.042,1.682,1.682,0,0,1-.646.885,1.852,1.852,0,0,1-1.08.318,1.9,1.9,0,0,1-1.1-.318m1.693-.576a1.045,1.045,0,0,0,.366-.538,2.9,2.9,0,0,0,.094-.8,3.085,3.085,0,0,0-.085-.788,1.046,1.046,0,0,0-.366-.538,1.01,1.01,0,0,0-.621-.19.982.982,0,0,0-.6.19,1.043,1.043,0,0,0-.366.538,2.689,2.689,0,0,0-.094.788,2.776,2.776,0,0,0,.094.8.99.99,0,0,0,.361.538,1.025,1.025,0,0,0,.625.191.968.968,0,0,0,.6-.191" transform="translate(-221.814 -137.899)"/>
      <path id="Path_28249" data-name="Path 28249" d="M316.5,180.762a1.475,1.475,0,0,1,.374,1.072v2.83a.075.075,0,0,1-.085.085h-.638a.075.075,0,0,1-.085-.085V182a.947.947,0,0,0-.234-.674.816.816,0,0,0-.625-.25.864.864,0,0,0-.638.246.891.891,0,0,0-.247.661v2.677a.075.075,0,0,1-.085.085H313.6a.075.075,0,0,1-.085-.085V182a.947.947,0,0,0-.234-.674.913.913,0,0,0-1.25,0,.918.918,0,0,0-.234.661v2.677a.075.075,0,0,1-.085.085h-.646a.075.075,0,0,1-.085-.085v-4.143a.075.075,0,0,1,.085-.085h.646a.075.075,0,0,1,.085.085v.288a.029.029,0,0,0,.013.026q.013.008.03-.008a1.337,1.337,0,0,1,1.089-.449,1.541,1.541,0,0,1,.74.165,1.148,1.148,0,0,1,.476.487q.025.034.051,0a1.27,1.27,0,0,1,.54-.491,1.7,1.7,0,0,1,.744-.161,1.357,1.357,0,0,1,1.021.385" transform="translate(-237.513 -137.927)"/>
      <path id="Path_28250" data-name="Path 28250" d="M351.353,176.642a1.425,1.425,0,0,1,.867,1.4,1.455,1.455,0,0,1-.54,1.224,2.228,2.228,0,0,1-1.408.42h-2.143a.1.1,0,0,1-.1-.1v-5.727a.1.1,0,0,1,.1-.1H350.2a2.251,2.251,0,0,1,1.429.4,1.443,1.443,0,0,1,.5,1.2,1.245,1.245,0,0,1-.782,1.237q-.051.025,0,.051m-2.339-2v1.567a.037.037,0,0,0,.043.042H350.2a1.076,1.076,0,0,0,.71-.216.737.737,0,0,0,.259-.6.771.771,0,0,0-.259-.614,1.05,1.05,0,0,0-.71-.224h-1.148a.038.038,0,0,0-.043.042m1.96,3.948a.83.83,0,0,0,.259-.644.819.819,0,0,0-.264-.648,1.04,1.04,0,0,0-.714-.233h-1.2a.037.037,0,0,0-.043.042v1.678a.038.038,0,0,0,.043.043h1.216a1,1,0,0,0,.7-.237" transform="translate(-265.805 -132.861)" fill="#ed1c24"/>
      <path id="Path_28251" data-name="Path 28251" d="M370.45,179.654a.1.1,0,0,1-.03-.072v-5.727a.1.1,0,0,1,.03-.072.1.1,0,0,1,.072-.03h.783a.1.1,0,0,1,.1.1v5.727a.1.1,0,0,1-.03.072.1.1,0,0,1-.072.03h-.783a.1.1,0,0,1-.072-.03" transform="translate(-282.907 -132.861)" fill="#ed1c24"/>
      <path id="Path_28252" data-name="Path 28252" d="M380.253,179.281a1.789,1.789,0,0,1-.748-.707,2.065,2.065,0,0,1-.263-1.051v-2.05a2.059,2.059,0,0,1,.263-1.055,1.8,1.8,0,0,1,.748-.7,2.637,2.637,0,0,1,2.233,0,1.843,1.843,0,0,1,.744.669,1.775,1.775,0,0,1,.264.957v.068a.1.1,0,0,1-.1.1h-.774a.1.1,0,0,1-.1-.1v-.042a1,1,0,0,0-.31-.754,1.152,1.152,0,0,0-.829-.3,1.137,1.137,0,0,0-.833.309,1.094,1.094,0,0,0-.315.818v2.118a1.064,1.064,0,0,0,.332.817,1.209,1.209,0,0,0,.859.309,1.149,1.149,0,0,0,.8-.267.941.941,0,0,0,.293-.733v-.525a.037.037,0,0,0-.043-.042h-1.046a.1.1,0,0,1-.1-.1v-.627a.1.1,0,0,1,.1-.1h1.964a.1.1,0,0,1,.1.1v1.084a1.986,1.986,0,0,1-.574,1.517,2.156,2.156,0,0,1-1.544.542,2.414,2.414,0,0,1-1.123-.25" transform="translate(-289.644 -132.641)" fill="#ed1c24"/>
      <path id="Path_28253" data-name="Path 28253" d="M409.445,179.6v-5.761a.075.075,0,0,1,.085-.085h.647a.075.075,0,0,1,.085.085v5.109a.03.03,0,0,0,.034.034h2.934a.075.075,0,0,1,.085.085v.534a.075.075,0,0,1-.085.085h-3.7a.075.075,0,0,1-.085-.085" transform="translate(-312.712 -132.861)"/>
      <path id="Path_28254" data-name="Path 28254" d="M433.3,179.616l-.306-.991a.033.033,0,0,0-.034-.025h-2.39a.033.033,0,0,0-.034.025l-.306.991a.1.1,0,0,1-.1.068h-.689c-.063,0-.085-.031-.068-.093l1.863-5.77a.1.1,0,0,1,.1-.068h.85a.1.1,0,0,1,.1.068l1.88,5.77.008.034c0,.039-.025.059-.076.059h-.7a.1.1,0,0,1-.1-.068m-2.547-1.673a.041.041,0,0,0,.03.013h1.956a.041.041,0,0,0,.03-.013.024.024,0,0,0,0-.03l-.987-3.143a.028.028,0,0,0-.025-.017.028.028,0,0,0-.026.017l-.987,3.143a.023.023,0,0,0,0,.03" transform="translate(-327.927 -132.861)"/>
      <path id="Path_28255" data-name="Path 28255" d="M457.422,173.753h.646a.075.075,0,0,1,.085.085V179.6a.075.075,0,0,1-.085.085h-.621a.124.124,0,0,1-.1-.059l-2.662-4.329c-.006-.017-.014-.024-.026-.021s-.017.013-.017.03l.009,4.3a.075.075,0,0,1-.085.085h-.646a.075.075,0,0,1-.085-.085v-5.761a.075.075,0,0,1,.085-.085h.629a.125.125,0,0,1,.1.059l2.653,4.329c.006.017.014.024.026.021s.017-.012.017-.03l-.008-4.3a.075.075,0,0,1,.085-.085" transform="translate(-346.614 -132.861)"/>
      <path id="Path_28256" data-name="Path 28256" d="M478.368,179.29a1.747,1.747,0,0,1-.731-.686,1.989,1.989,0,0,1-.259-1.021v-2.169a1.983,1.983,0,0,1,.259-1.025,1.758,1.758,0,0,1,.731-.682,2.567,2.567,0,0,1,2.165,0,1.782,1.782,0,0,1,.727.657,1.759,1.759,0,0,1,.259.945v.093a.075.075,0,0,1-.085.085h-.647a.075.075,0,0,1-.085-.085v-.076a1.073,1.073,0,0,0-.344-.826,1.285,1.285,0,0,0-.906-.318,1.264,1.264,0,0,0-.914.331,1.163,1.163,0,0,0-.344.881v2.22a1.144,1.144,0,0,0,.357.881,1.324,1.324,0,0,0,.936.33,1.287,1.287,0,0,0,.889-.292,1.019,1.019,0,0,0,.328-.8v-.652a.03.03,0,0,0-.034-.034H479.52a.075.075,0,0,1-.085-.085v-.525a.075.075,0,0,1,.085-.085h1.914a.075.075,0,0,1,.085.085v1.076a1.961,1.961,0,0,1-.557,1.5,2.111,2.111,0,0,1-1.51.525,2.346,2.346,0,0,1-1.084-.241" transform="translate(-364.595 -132.641)"/>
      <path id="Path_28257" data-name="Path 28257" d="M500.876,179.51a1.774,1.774,0,0,1-.736-.686,1.963,1.963,0,0,1-.264-1.021v-3.965a.075.075,0,0,1,.085-.085h.646a.075.075,0,0,1,.085.085v3.982a1.177,1.177,0,0,0,.353.89,1.276,1.276,0,0,0,.923.339,1.262,1.262,0,0,0,.919-.339,1.185,1.185,0,0,0,.348-.89v-3.982a.075.075,0,0,1,.085-.085h.646a.075.075,0,0,1,.085.085V177.8a1.991,1.991,0,0,1-.259,1.021,1.748,1.748,0,0,1-.731.686,2.594,2.594,0,0,1-2.186,0" transform="translate(-381.78 -132.861)"/>
      <path id="Path_28258" data-name="Path 28258" d="M524.92,179.616l-.306-.991a.033.033,0,0,0-.034-.025h-2.39a.033.033,0,0,0-.034.025l-.306.991a.1.1,0,0,1-.1.068h-.689c-.063,0-.085-.031-.068-.093l1.863-5.77a.1.1,0,0,1,.1-.068h.85a.1.1,0,0,1,.1.068l1.88,5.77.008.034c0,.039-.025.059-.076.059h-.7a.1.1,0,0,1-.1-.068m-2.547-1.673a.041.041,0,0,0,.03.013h1.956a.041.041,0,0,0,.03-.013.024.024,0,0,0,0-.03l-.987-3.143a.028.028,0,0,0-.051,0l-.987,3.143a.023.023,0,0,0,0,.03" transform="translate(-397.901 -132.861)"/>
      <path id="Path_28259" data-name="Path 28259" d="M545.219,179.29a1.747,1.747,0,0,1-.731-.686,1.988,1.988,0,0,1-.259-1.021v-2.169a1.982,1.982,0,0,1,.259-1.025,1.758,1.758,0,0,1,.731-.682,2.567,2.567,0,0,1,2.165,0,1.784,1.784,0,0,1,.727.657,1.76,1.76,0,0,1,.259.945v.093a.075.075,0,0,1-.085.085h-.646a.075.075,0,0,1-.085-.085v-.076a1.072,1.072,0,0,0-.344-.826,1.284,1.284,0,0,0-.906-.318,1.264,1.264,0,0,0-.914.331,1.163,1.163,0,0,0-.344.881v2.22a1.144,1.144,0,0,0,.357.881,1.325,1.325,0,0,0,.936.33,1.288,1.288,0,0,0,.889-.292,1.019,1.019,0,0,0,.328-.8v-.652a.03.03,0,0,0-.034-.034h-1.148a.075.075,0,0,1-.085-.085v-.525a.075.075,0,0,1,.085-.085h1.914a.075.075,0,0,1,.085.085v1.076a1.96,1.96,0,0,1-.557,1.5,2.111,2.111,0,0,1-1.509.525,2.346,2.346,0,0,1-1.084-.241" transform="translate(-415.653 -132.641)"/>
      <path id="Path_28260" data-name="Path 28260" d="M570.851,174.456h-3.019a.03.03,0,0,0-.034.034v1.822a.03.03,0,0,0,.034.034h2.075a.075.075,0,0,1,.085.085v.534a.075.075,0,0,1-.085.085h-2.075a.03.03,0,0,0-.034.034v1.864a.03.03,0,0,0,.034.034h3.019a.075.075,0,0,1,.085.085v.534a.075.075,0,0,1-.085.085h-3.785a.075.075,0,0,1-.085-.085v-5.761a.075.075,0,0,1,.085-.085h3.785a.075.075,0,0,1,.085.085v.534a.075.075,0,0,1-.085.085" transform="translate(-433.03 -132.861)"/>
      <path id="Path_28261" data-name="Path 28261" d="M595.447,179.328a1.662,1.662,0,0,1-.74-.576,1.49,1.49,0,0,1-.259-.873v-.246a.075.075,0,0,1,.085-.085h.621a.075.075,0,0,1,.085.085v.2a.854.854,0,0,0,.374.712,1.686,1.686,0,0,0,1.029.28,1.364,1.364,0,0,0,.884-.246.794.794,0,0,0,.3-.644.686.686,0,0,0-.153-.449,1.459,1.459,0,0,0-.446-.343,8.622,8.622,0,0,0-.855-.377,8.576,8.576,0,0,1-.982-.432,1.812,1.812,0,0,1-.6-.513,1.3,1.3,0,0,1-.238-.8,1.379,1.379,0,0,1,.523-1.144,2.217,2.217,0,0,1,1.416-.415,2.7,2.7,0,0,1,1.106.212,1.7,1.7,0,0,1,.736.593,1.528,1.528,0,0,1,.259.881v.17a.075.075,0,0,1-.085.084h-.638a.075.075,0,0,1-.085-.084v-.127a.913.913,0,0,0-.353-.733,1.482,1.482,0,0,0-.974-.292,1.341,1.341,0,0,0-.817.216.73.73,0,0,0-.289.623.7.7,0,0,0,.145.457,1.255,1.255,0,0,0,.43.318q.285.14.872.36a9.755,9.755,0,0,1,.978.436,1.876,1.876,0,0,1,.621.525,1.3,1.3,0,0,1,.247.809,1.43,1.43,0,0,1-.549,1.182,2.364,2.364,0,0,1-1.51.436,2.9,2.9,0,0,1-1.135-.2" transform="translate(-454.008 -132.641)"/>
      <path id="Path_28262" data-name="Path 28262" d="M617.195,179.287a1.82,1.82,0,0,1-.74-.716,2.106,2.106,0,0,1-.264-1.064v-2.016a2.082,2.082,0,0,1,.264-1.059,1.828,1.828,0,0,1,.74-.712,2.514,2.514,0,0,1,2.2,0,1.832,1.832,0,0,1,.74.712,2.084,2.084,0,0,1,.264,1.059v2.016a2.107,2.107,0,0,1-.264,1.064,1.824,1.824,0,0,1-.74.716,2.514,2.514,0,0,1-2.2,0m2.033-.8a1.269,1.269,0,0,0,.357-.94v-2.059a1.3,1.3,0,0,0-.357-.953,1.26,1.26,0,0,0-.936-.36,1.245,1.245,0,0,0-.931.36,1.3,1.3,0,0,0-.353.953v2.059a1.277,1.277,0,0,0,.353.94,1.253,1.253,0,0,0,.931.356,1.268,1.268,0,0,0,.936-.356" transform="translate(-470.614 -132.642)"/>
      <path id="Path_28263" data-name="Path 28263" d="M639.269,179.6v-5.761a.075.075,0,0,1,.085-.085H640a.075.075,0,0,1,.085.085v5.109a.03.03,0,0,0,.034.034h2.934a.075.075,0,0,1,.085.085v.534a.075.075,0,0,1-.085.085h-3.7a.075.075,0,0,1-.085-.085" transform="translate(-488.24 -132.861)"/>
      <path id="Path_28264" data-name="Path 28264" d="M660.536,179.51a1.773,1.773,0,0,1-.736-.686,1.963,1.963,0,0,1-.264-1.021v-3.965a.075.075,0,0,1,.085-.085h.646a.075.075,0,0,1,.085.085v3.982a1.177,1.177,0,0,0,.353.89,1.276,1.276,0,0,0,.923.339,1.262,1.262,0,0,0,.919-.339,1.185,1.185,0,0,0,.349-.89v-3.982a.075.075,0,0,1,.085-.085h.646a.075.075,0,0,1,.085.085V177.8a1.99,1.99,0,0,1-.259,1.021,1.749,1.749,0,0,1-.732.686,2.594,2.594,0,0,1-2.186,0" transform="translate(-503.72 -132.861)"/>
      <path id="Path_28265" data-name="Path 28265" d="M685.525,173.839v.542a.075.075,0,0,1-.085.085h-1.633a.03.03,0,0,0-.034.034v5.1a.075.075,0,0,1-.085.085h-.647a.075.075,0,0,1-.085-.085v-5.1a.03.03,0,0,0-.034-.034h-1.556a.075.075,0,0,1-.085-.085v-.542a.075.075,0,0,1,.085-.085h4.074a.075.075,0,0,1,.085.085" transform="translate(-520.326 -132.862)"/>
      <path id="Path_28266" data-name="Path 28266" d="M703.529,179.6v-5.761a.075.075,0,0,1,.085-.085h.647a.075.075,0,0,1,.085.085V179.6a.075.075,0,0,1-.085.085h-.647a.075.075,0,0,1-.085-.085" transform="translate(-537.318 -132.861)"/>
      <path id="Path_28267" data-name="Path 28267" d="M713.208,179.287a1.82,1.82,0,0,1-.74-.716,2.106,2.106,0,0,1-.264-1.064v-2.016a2.083,2.083,0,0,1,.264-1.059,1.828,1.828,0,0,1,.74-.712,2.514,2.514,0,0,1,2.2,0,1.831,1.831,0,0,1,.74.712,2.082,2.082,0,0,1,.264,1.059v2.016a2.106,2.106,0,0,1-.264,1.064,1.823,1.823,0,0,1-.74.716,2.514,2.514,0,0,1-2.2,0m2.033-.8a1.269,1.269,0,0,0,.357-.94v-2.059a1.294,1.294,0,0,0-.357-.953,1.259,1.259,0,0,0-.935-.36,1.245,1.245,0,0,0-.931.36,1.3,1.3,0,0,0-.353.953v2.059a1.277,1.277,0,0,0,.353.94,1.253,1.253,0,0,0,.931.356,1.267,1.267,0,0,0,.935-.356" transform="translate(-543.944 -132.642)"/>
      <path id="Path_28268" data-name="Path 28268" d="M738.87,173.753h.646a.075.075,0,0,1,.085.085V179.6a.075.075,0,0,1-.085.085H738.9a.123.123,0,0,1-.1-.059l-2.662-4.329c-.006-.017-.014-.024-.025-.021s-.017.013-.017.03l.009,4.3a.075.075,0,0,1-.085.085h-.646a.075.075,0,0,1-.085-.085v-5.761a.075.075,0,0,1,.085-.085H736a.125.125,0,0,1,.1.059l2.653,4.329c.006.017.014.024.025.021s.017-.012.017-.03l-.009-4.3a.075.075,0,0,1,.085-.085" transform="translate(-561.569 -132.861)"/>
      <path id="Path_28269" data-name="Path 28269" d="M759.248,179.328a1.664,1.664,0,0,1-.74-.576,1.489,1.489,0,0,1-.259-.873v-.246a.075.075,0,0,1,.085-.085h.621a.075.075,0,0,1,.085.085v.2a.854.854,0,0,0,.374.712,1.686,1.686,0,0,0,1.029.28,1.364,1.364,0,0,0,.884-.246.794.794,0,0,0,.3-.644.687.687,0,0,0-.153-.449,1.461,1.461,0,0,0-.447-.343,8.593,8.593,0,0,0-.855-.377,8.586,8.586,0,0,1-.982-.432,1.814,1.814,0,0,1-.6-.513,1.3,1.3,0,0,1-.238-.8,1.379,1.379,0,0,1,.523-1.144,2.217,2.217,0,0,1,1.416-.415,2.7,2.7,0,0,1,1.106.212,1.7,1.7,0,0,1,.736.593,1.528,1.528,0,0,1,.259.881v.17a.075.075,0,0,1-.085.084h-.638a.075.075,0,0,1-.085-.084v-.127a.913.913,0,0,0-.353-.733,1.482,1.482,0,0,0-.974-.292,1.341,1.341,0,0,0-.817.216.73.73,0,0,0-.289.623.7.7,0,0,0,.145.457,1.256,1.256,0,0,0,.43.318q.285.14.872.36a9.772,9.772,0,0,1,.978.436,1.874,1.874,0,0,1,.621.525,1.305,1.305,0,0,1,.247.809,1.43,1.43,0,0,1-.549,1.182,2.363,2.363,0,0,1-1.51.436,2.9,2.9,0,0,1-1.135-.2" transform="translate(-579.111 -132.641)"/>
      <path id="Path_28270" data-name="Path 28270" d="M88.691,127.07a9.465,9.465,0,0,1-9.346-11.145.473.473,0,0,1,.93.167,8.551,8.551,0,1,0,16.84.047.473.473,0,0,1,.931-.162,9.466,9.466,0,0,1-9.356,11.093" transform="translate(-60.484 -88.346)"/>
      <path id="Path_28271" data-name="Path 28271" d="M103.269,91.985h-.21a4.949,4.949,0,0,1-4.953-4.933V78.894a4.949,4.949,0,0,1,4.953-4.933h.21a4.949,4.949,0,0,1,4.953,4.933v8.158a4.949,4.949,0,0,1-4.953,4.933m-.21-17.084a4,4,0,0,0-4.008,3.992v8.158a4,4,0,0,0,4.008,3.992h.21a4,4,0,0,0,4.008-3.992V78.894a4,4,0,0,0-4.008-3.992Z" transform="translate(-74.928 -56.554)"/>
      <path id="Path_28272" data-name="Path 28272" d="M101.6,98.271H99.319a.471.471,0,1,1,0-.941H101.6a.471.471,0,1,1,0,.941" transform="translate(-75.494 -74.424)"/>
      <path id="Path_28273" data-name="Path 28273" d="M101.6,110.716H99.319a.471.471,0,1,1,0-.941H101.6a.471.471,0,1,1,0,.941" transform="translate(-75.494 -83.94)"/>
      <path id="Path_28274" data-name="Path 28274" d="M101.6,123.16H99.319a.471.471,0,1,1,0-.941H101.6a.471.471,0,1,1,0,.941" transform="translate(-75.494 -93.456)"/>
      <path id="Path_28275" data-name="Path 28275" d="M129.269,98.271h-2.284a.471.471,0,1,1,0-.941h2.284a.471.471,0,1,1,0,.941" transform="translate(-96.624 -74.424)"/>
      <path id="Path_28276" data-name="Path 28276" d="M129.269,110.716h-2.284a.471.471,0,1,1,0-.941h2.284a.471.471,0,1,1,0,.941" transform="translate(-96.624 -83.94)"/>
      <path id="Path_28277" data-name="Path 28277" d="M129.269,123.16h-2.284a.471.471,0,1,1,0-.941h2.284a.471.471,0,1,1,0,.941" transform="translate(-96.624 -93.456)"/>
      <path id="Path_28278" data-name="Path 28278" d="M67.7,56.886H40.892a4.354,4.354,0,0,0-4.357,4.341v1.726h-.087A1.451,1.451,0,0,0,34.994,64.4v4.916a1.451,1.451,0,0,0,1.453,1.447h.087v4.489h-.087A1.451,1.451,0,0,0,34.994,76.7v4.916a1.451,1.451,0,0,0,1.453,1.447h.087v1.944a4.354,4.354,0,0,0,4.357,4.341h5.131l.277,8.47a.471.471,0,0,0,.25.4.475.475,0,0,0,.473-.017l14.191-8.854H67.7a4.354,4.354,0,0,0,4.358-4.341V61.227A4.354,4.354,0,0,0,67.7,56.886M36.447,69.821a.507.507,0,0,1-.508-.506V64.4a.507.507,0,0,1,.508-.506h1.89a.507.507,0,0,1,.507.506v4.916a.507.507,0,0,1-.507.506h-1.89Zm0,12.3a.507.507,0,0,1-.508-.506V76.7a.507.507,0,0,1,.508-.506h1.89a.507.507,0,0,1,.507.506v4.916a.507.507,0,0,1-.507.506Zm34.668,2.885A3.41,3.41,0,0,1,67.7,88.4H61.078a.473.473,0,0,0-.251.072l-13.61,8.491-.265-8.108a.472.472,0,0,0-.472-.455H40.892a3.41,3.41,0,0,1-3.412-3.4V83.061h.858a1.451,1.451,0,0,0,1.452-1.447V76.7a1.451,1.451,0,0,0-1.452-1.447h-.858V70.762h.858a1.451,1.451,0,0,0,1.452-1.447V64.4a1.451,1.451,0,0,0-1.452-1.447h-.858V61.227a3.41,3.41,0,0,1,3.412-3.4H67.7a3.41,3.41,0,0,1,3.413,3.4Z" transform="translate(-26.727 -43.498)"/>
      <path id="Path_28279" data-name="Path 28279" d="M104.353,181.883h-12.1a.471.471,0,1,1,0-.941h12.1a.471.471,0,1,1,0,.941" transform="translate(-70.096 -138.359)"/>
      <path id="Path_28280" data-name="Path 28280" d="M117.864,166.284a.472.472,0,0,1-.473-.471v-4.8a.472.472,0,0,1,.945,0v4.8a.472.472,0,0,1-.472.471" transform="translate(-89.657 -122.759)"/>
    </g>
  </g>
</svg>
